<svg width="75" height="68" viewBox="0 0 75 68" fill="none" xmlns="http://www.w3.org/2000/svg">
<g clip-path="url(#clip0_151_29)">
<path d="M73.1784 31.7735C72.0443 29.6573 70.4973 28.0129 68.7487 26.912C67.0002 25.8111 65.0501 25.2422 63.0822 25.2422C60.5216 25.2399 57.9136 26.2159 55.7324 28.2303L40.1772 43.3721L49.6727 52.7481V45.7427L47.4243 43.5224L58.5617 32.4396C59.921 31.1884 61.4996 30.6032 63.0822 30.5986C64.2973 30.5986 65.5065 30.9525 66.5793 31.6301C67.6541 32.3101 68.5946 33.3045 69.3039 34.6205C70.0646 36.0406 70.4242 37.6086 70.4261 39.1744C70.4261 39.8127 70.3649 40.451 70.2444 41.0755C69.8749 42.9812 68.966 44.7297 67.5494 45.9971L51.2829 60.5537L19.5502 28.6027L19.5383 28.5911C17.3255 26.424 14.6049 25.3486 11.9079 25.3509C8.86329 25.3486 5.81864 26.7201 3.51094 29.4029C1.16571 32.1343 -0.00394155 35.733 9.9786e-06 39.2854C9.9786e-06 41.2998 0.369478 43.3096 1.10644 45.1668C1.8434 47.024 2.94983 48.7285 4.40201 50.1069L22.6976 67.4828L32.9222 55.572L23.8969 46.6979V53.6917L26.1493 55.9074L22.3854 60.2924L7.28465 45.9508C6.37975 45.0905 5.70997 44.0544 5.25752 42.9142C4.80507 41.7763 4.57588 40.5343 4.57588 39.2877C4.57983 37.0836 5.2832 34.9027 6.73737 33.2051C8.16782 31.5445 10.0231 30.7119 11.9079 30.7096C13.5755 30.7096 15.2332 31.3641 16.6004 32.7009L51.1111 67.4505L70.3273 50.2549C72.6192 48.2035 74.1149 45.3356 74.7076 42.255C74.9012 41.2466 75 40.2128 75 39.1744C75 36.6373 74.4053 34.0631 73.1784 31.7758V31.7735Z" fill="#1D2428"/>
<path d="M37.4999 39.5152L37.5493 39.4713L50.3601 26.3555H24.6396L37.4505 39.4713L37.4999 39.5152Z" fill="#4B7DEA"/>
<path d="M20.5364 4.16715C20.6549 4.16715 20.7675 4.14865 20.8782 4.12089L24.6855 11.4524C23.0001 14.2277 21.9629 17.572 21.8107 21.1915H19.6907V23.2939H55.3098V21.1915H53.1898C53.0377 17.572 51.9984 14.2277 50.3151 11.4524L54.1224 4.12089C54.233 4.15096 54.3456 4.16715 54.4642 4.16715C55.3256 4.16715 56.0231 3.35074 56.0231 2.34236C56.0231 1.33399 55.3256 0.517578 54.4642 0.517578C53.6028 0.517578 52.9053 1.33399 52.9053 2.34236C52.9053 2.77717 53.0416 3.17265 53.259 3.48719L48.9992 9.56056C47.8059 8.05956 46.4031 6.79216 44.8422 5.82541L41.7699 18.4254V4.38918C40.4126 3.93587 38.9801 3.69997 37.5023 3.69997C36.0244 3.69997 34.592 3.93587 33.2346 4.38918V18.4254L30.1623 5.82541C28.6014 6.79216 27.1986 8.06187 26.0053 9.56056L21.7455 3.48719C21.9629 3.17265 22.0992 2.77948 22.0992 2.34236C22.0992 1.33399 21.4018 0.517578 20.5403 0.517578C19.6789 0.517578 18.9814 1.33399 18.9814 2.34236C18.9814 3.35074 19.6789 4.16715 20.5403 4.16715H20.5364Z" fill="#184587"/>
</g>
<defs>
<clipPath id="clip0_151_29">
<rect width="75" height="66.9643" fill="white" transform="translate(0 0.517578)"/>
</clipPath>
</defs>
</svg>
